<svg id="Layer_1" data-name="Layer 1" xmlns="http://www.w3.org/2000/svg" xmlns:xlink="http://www.w3.org/1999/xlink" viewBox="0 0 131 131"><defs><style>.cls-1{fill:url(#linear-gradient);}.cls-2{fill:#fff;}</style><linearGradient id="linear-gradient" x1="175.6" y1="-37.54" x2="23.44" y2="104.86" gradientUnits="userSpaceOnUse"><stop offset="0" stop-color="#2e5c6b"/><stop offset="1" stop-color="#4bc4b8"/></linearGradient></defs><title>final</title><path class="cls-1" d="M130.5,26.41V21.5A20.93,20.93,0,0,0,128.7,13a.67.67,0,0,1-.06-.12c-.61.36-10-9.61-9.51-10l-.06,0A20.92,20.92,0,0,0,109.5.5h-3.34C106,.74,86.5,1,86.54.5h-65a21,21,0,0,0-21,21v88a21,21,0,0,0,21,21h88a21,21,0,0,0,21-21V45.89C129.9,46.15,130.27,26.57,130.5,26.41Z"/><circle class="cls-2" cx="100.24" cy="66.41" r="7.3"/><circle class="cls-2" cx="30.66" cy="66.41" r="7.3"/><path class="cls-2" d="M128.7,13,34.2,107.46a7,7,0,0,1-9.9-9.9L119.07,2.8A21.1,21.1,0,0,1,128.7,13Z"/><path class="cls-2" d="M130.5,26.23V46l-8.85,8.85a7,7,0,0,1-9.9-9.9Z"/><path class="cls-2" d="M49.62,54.28a7,7,0,0,1-4.95-12L86.5.5h19.8L54.57,52.23A7,7,0,0,1,49.62,54.28Z"/></svg>